G04 EAGLE Gerber RS-274X export*
G75*
%MOMM*%
%FSLAX34Y34*%
%LPD*%
%INSoldermask Top*%
%IPPOS*%
%AMOC8*
5,1,8,0,0,1.08239X$1,22.5*%
G01*
%ADD10R,1.303200X1.203200*%
%ADD11R,0.778200X0.553200*%
%ADD12C,3.505200*%
%ADD13C,0.505344*%
%ADD14C,2.082800*%
%ADD15R,2.203200X1.403200*%
%ADD16R,1.553200X0.803200*%
%ADD17R,1.203200X1.303200*%
%ADD18C,1.203200*%
%ADD19C,1.270000*%
%ADD20C,1.703200*%


D10*
X143900Y177800D03*
X160900Y177800D03*
X110100Y177800D03*
X93100Y177800D03*
X87240Y88900D03*
X70240Y88900D03*
X38980Y177800D03*
X21980Y177800D03*
D11*
X134375Y112000D03*
X134375Y118000D03*
X134375Y124000D03*
X134375Y130000D03*
X134375Y136000D03*
X134375Y142000D03*
X119625Y142000D03*
X119625Y136000D03*
X119625Y130000D03*
X119625Y124000D03*
X119625Y118000D03*
X119625Y112000D03*
D12*
X228600Y228600D03*
X25400Y228600D03*
X25400Y25400D03*
X228600Y25400D03*
D13*
X68780Y174310D02*
X68780Y181290D01*
X75760Y181290D01*
X75760Y174310D01*
X68780Y174310D01*
X68780Y179110D02*
X75760Y179110D01*
X51240Y181290D02*
X51240Y174310D01*
X51240Y181290D02*
X58220Y181290D01*
X58220Y174310D01*
X51240Y174310D01*
X51240Y179110D02*
X58220Y179110D01*
D14*
X88900Y241300D03*
X114300Y241300D03*
X139700Y241300D03*
X165100Y241300D03*
X88900Y12700D03*
X114300Y12700D03*
X139700Y12700D03*
X165100Y12700D03*
D15*
X14050Y155000D03*
X14050Y99000D03*
D16*
X50800Y142000D03*
X50800Y132000D03*
X50800Y122000D03*
X50800Y112000D03*
D15*
X239950Y99000D03*
X239950Y155000D03*
D16*
X203200Y112000D03*
X203200Y122000D03*
X203200Y132000D03*
X203200Y142000D03*
D17*
X165100Y118500D03*
X165100Y135500D03*
X88900Y135500D03*
X88900Y118500D03*
D10*
X118500Y88900D03*
X135500Y88900D03*
X187570Y88900D03*
X170570Y88900D03*
D18*
X7620Y246380D03*
X246380Y7620D03*
D10*
X402980Y177800D03*
X419980Y177800D03*
X369180Y177800D03*
X352180Y177800D03*
X346320Y88900D03*
X329320Y88900D03*
X298060Y177800D03*
X281060Y177800D03*
D11*
X393455Y112000D03*
X393455Y118000D03*
X393455Y124000D03*
X393455Y130000D03*
X393455Y136000D03*
X393455Y142000D03*
X378705Y142000D03*
X378705Y136000D03*
X378705Y130000D03*
X378705Y124000D03*
X378705Y118000D03*
X378705Y112000D03*
D12*
X487680Y228600D03*
X284480Y228600D03*
X284480Y25400D03*
X487680Y25400D03*
D13*
X327860Y174310D02*
X327860Y181290D01*
X334840Y181290D01*
X334840Y174310D01*
X327860Y174310D01*
X327860Y179110D02*
X334840Y179110D01*
X310320Y181290D02*
X310320Y174310D01*
X310320Y181290D02*
X317300Y181290D01*
X317300Y174310D01*
X310320Y174310D01*
X310320Y179110D02*
X317300Y179110D01*
D14*
X347980Y241300D03*
X373380Y241300D03*
X398780Y241300D03*
X424180Y241300D03*
X347980Y12700D03*
X373380Y12700D03*
X398780Y12700D03*
X424180Y12700D03*
D15*
X273130Y155000D03*
X273130Y99000D03*
D16*
X309880Y142000D03*
X309880Y132000D03*
X309880Y122000D03*
X309880Y112000D03*
D15*
X499030Y99000D03*
X499030Y155000D03*
D16*
X462280Y112000D03*
X462280Y122000D03*
X462280Y132000D03*
X462280Y142000D03*
D17*
X424180Y118500D03*
X424180Y135500D03*
X347980Y135500D03*
X347980Y118500D03*
D10*
X377580Y88900D03*
X394580Y88900D03*
X446650Y88900D03*
X429650Y88900D03*
D18*
X266700Y246380D03*
X505460Y7620D03*
D10*
X662060Y177800D03*
X679060Y177800D03*
X628260Y177800D03*
X611260Y177800D03*
X605400Y88900D03*
X588400Y88900D03*
X557140Y177800D03*
X540140Y177800D03*
D11*
X652535Y112000D03*
X652535Y118000D03*
X652535Y124000D03*
X652535Y130000D03*
X652535Y136000D03*
X652535Y142000D03*
X637785Y142000D03*
X637785Y136000D03*
X637785Y130000D03*
X637785Y124000D03*
X637785Y118000D03*
X637785Y112000D03*
D12*
X746760Y228600D03*
X543560Y228600D03*
X543560Y25400D03*
X746760Y25400D03*
D13*
X586940Y174310D02*
X586940Y181290D01*
X593920Y181290D01*
X593920Y174310D01*
X586940Y174310D01*
X586940Y179110D02*
X593920Y179110D01*
X569400Y181290D02*
X569400Y174310D01*
X569400Y181290D02*
X576380Y181290D01*
X576380Y174310D01*
X569400Y174310D01*
X569400Y179110D02*
X576380Y179110D01*
D14*
X607060Y241300D03*
X632460Y241300D03*
X657860Y241300D03*
X683260Y241300D03*
X607060Y12700D03*
X632460Y12700D03*
X657860Y12700D03*
X683260Y12700D03*
D15*
X532210Y155000D03*
X532210Y99000D03*
D16*
X568960Y142000D03*
X568960Y132000D03*
X568960Y122000D03*
X568960Y112000D03*
D15*
X758110Y99000D03*
X758110Y155000D03*
D16*
X721360Y112000D03*
X721360Y122000D03*
X721360Y132000D03*
X721360Y142000D03*
D17*
X683260Y118500D03*
X683260Y135500D03*
X607060Y135500D03*
X607060Y118500D03*
D10*
X636660Y88900D03*
X653660Y88900D03*
X705730Y88900D03*
X688730Y88900D03*
D18*
X525780Y246380D03*
X764540Y7620D03*
D10*
X921140Y177800D03*
X938140Y177800D03*
X887340Y177800D03*
X870340Y177800D03*
X864480Y88900D03*
X847480Y88900D03*
X816220Y177800D03*
X799220Y177800D03*
D11*
X911615Y112000D03*
X911615Y118000D03*
X911615Y124000D03*
X911615Y130000D03*
X911615Y136000D03*
X911615Y142000D03*
X896865Y142000D03*
X896865Y136000D03*
X896865Y130000D03*
X896865Y124000D03*
X896865Y118000D03*
X896865Y112000D03*
D12*
X1005840Y228600D03*
X802640Y228600D03*
X802640Y25400D03*
X1005840Y25400D03*
D13*
X846020Y174310D02*
X846020Y181290D01*
X853000Y181290D01*
X853000Y174310D01*
X846020Y174310D01*
X846020Y179110D02*
X853000Y179110D01*
X828480Y181290D02*
X828480Y174310D01*
X828480Y181290D02*
X835460Y181290D01*
X835460Y174310D01*
X828480Y174310D01*
X828480Y179110D02*
X835460Y179110D01*
D14*
X866140Y241300D03*
X891540Y241300D03*
X916940Y241300D03*
X942340Y241300D03*
X866140Y12700D03*
X891540Y12700D03*
X916940Y12700D03*
X942340Y12700D03*
D15*
X791290Y155000D03*
X791290Y99000D03*
D16*
X828040Y142000D03*
X828040Y132000D03*
X828040Y122000D03*
X828040Y112000D03*
D15*
X1017190Y99000D03*
X1017190Y155000D03*
D16*
X980440Y112000D03*
X980440Y122000D03*
X980440Y132000D03*
X980440Y142000D03*
D17*
X942340Y118500D03*
X942340Y135500D03*
X866140Y135500D03*
X866140Y118500D03*
D10*
X895740Y88900D03*
X912740Y88900D03*
X964810Y88900D03*
X947810Y88900D03*
D18*
X784860Y246380D03*
X1023620Y7620D03*
D10*
X143900Y436880D03*
X160900Y436880D03*
X110100Y436880D03*
X93100Y436880D03*
X87240Y347980D03*
X70240Y347980D03*
X38980Y436880D03*
X21980Y436880D03*
D11*
X134375Y371080D03*
X134375Y377080D03*
X134375Y383080D03*
X134375Y389080D03*
X134375Y395080D03*
X134375Y401080D03*
X119625Y401080D03*
X119625Y395080D03*
X119625Y389080D03*
X119625Y383080D03*
X119625Y377080D03*
X119625Y371080D03*
D12*
X228600Y487680D03*
X25400Y487680D03*
X25400Y284480D03*
X228600Y284480D03*
D13*
X68780Y433390D02*
X68780Y440370D01*
X75760Y440370D01*
X75760Y433390D01*
X68780Y433390D01*
X68780Y438190D02*
X75760Y438190D01*
X51240Y440370D02*
X51240Y433390D01*
X51240Y440370D02*
X58220Y440370D01*
X58220Y433390D01*
X51240Y433390D01*
X51240Y438190D02*
X58220Y438190D01*
D14*
X88900Y500380D03*
X114300Y500380D03*
X139700Y500380D03*
X165100Y500380D03*
X88900Y271780D03*
X114300Y271780D03*
X139700Y271780D03*
X165100Y271780D03*
D15*
X14050Y414080D03*
X14050Y358080D03*
D16*
X50800Y401080D03*
X50800Y391080D03*
X50800Y381080D03*
X50800Y371080D03*
D15*
X239950Y358080D03*
X239950Y414080D03*
D16*
X203200Y371080D03*
X203200Y381080D03*
X203200Y391080D03*
X203200Y401080D03*
D17*
X165100Y377580D03*
X165100Y394580D03*
X88900Y394580D03*
X88900Y377580D03*
D10*
X118500Y347980D03*
X135500Y347980D03*
X187570Y347980D03*
X170570Y347980D03*
D18*
X7620Y505460D03*
X246380Y266700D03*
D10*
X402980Y436880D03*
X419980Y436880D03*
X369180Y436880D03*
X352180Y436880D03*
X346320Y347980D03*
X329320Y347980D03*
X298060Y436880D03*
X281060Y436880D03*
D11*
X393455Y371080D03*
X393455Y377080D03*
X393455Y383080D03*
X393455Y389080D03*
X393455Y395080D03*
X393455Y401080D03*
X378705Y401080D03*
X378705Y395080D03*
X378705Y389080D03*
X378705Y383080D03*
X378705Y377080D03*
X378705Y371080D03*
D12*
X487680Y487680D03*
X284480Y487680D03*
X284480Y284480D03*
X487680Y284480D03*
D13*
X327860Y433390D02*
X327860Y440370D01*
X334840Y440370D01*
X334840Y433390D01*
X327860Y433390D01*
X327860Y438190D02*
X334840Y438190D01*
X310320Y440370D02*
X310320Y433390D01*
X310320Y440370D02*
X317300Y440370D01*
X317300Y433390D01*
X310320Y433390D01*
X310320Y438190D02*
X317300Y438190D01*
D14*
X347980Y500380D03*
X373380Y500380D03*
X398780Y500380D03*
X424180Y500380D03*
X347980Y271780D03*
X373380Y271780D03*
X398780Y271780D03*
X424180Y271780D03*
D15*
X273130Y414080D03*
X273130Y358080D03*
D16*
X309880Y401080D03*
X309880Y391080D03*
X309880Y381080D03*
X309880Y371080D03*
D15*
X499030Y358080D03*
X499030Y414080D03*
D16*
X462280Y371080D03*
X462280Y381080D03*
X462280Y391080D03*
X462280Y401080D03*
D17*
X424180Y377580D03*
X424180Y394580D03*
X347980Y394580D03*
X347980Y377580D03*
D10*
X377580Y347980D03*
X394580Y347980D03*
X446650Y347980D03*
X429650Y347980D03*
D18*
X266700Y505460D03*
X505460Y266700D03*
D10*
X662060Y436880D03*
X679060Y436880D03*
X628260Y436880D03*
X611260Y436880D03*
X605400Y347980D03*
X588400Y347980D03*
X557140Y436880D03*
X540140Y436880D03*
D11*
X652535Y371080D03*
X652535Y377080D03*
X652535Y383080D03*
X652535Y389080D03*
X652535Y395080D03*
X652535Y401080D03*
X637785Y401080D03*
X637785Y395080D03*
X637785Y389080D03*
X637785Y383080D03*
X637785Y377080D03*
X637785Y371080D03*
D12*
X746760Y487680D03*
X543560Y487680D03*
X543560Y284480D03*
X746760Y284480D03*
D13*
X586940Y433390D02*
X586940Y440370D01*
X593920Y440370D01*
X593920Y433390D01*
X586940Y433390D01*
X586940Y438190D02*
X593920Y438190D01*
X569400Y440370D02*
X569400Y433390D01*
X569400Y440370D02*
X576380Y440370D01*
X576380Y433390D01*
X569400Y433390D01*
X569400Y438190D02*
X576380Y438190D01*
D14*
X607060Y500380D03*
X632460Y500380D03*
X657860Y500380D03*
X683260Y500380D03*
X607060Y271780D03*
X632460Y271780D03*
X657860Y271780D03*
X683260Y271780D03*
D15*
X532210Y414080D03*
X532210Y358080D03*
D16*
X568960Y401080D03*
X568960Y391080D03*
X568960Y381080D03*
X568960Y371080D03*
D15*
X758110Y358080D03*
X758110Y414080D03*
D16*
X721360Y371080D03*
X721360Y381080D03*
X721360Y391080D03*
X721360Y401080D03*
D17*
X683260Y377580D03*
X683260Y394580D03*
X607060Y394580D03*
X607060Y377580D03*
D10*
X636660Y347980D03*
X653660Y347980D03*
X705730Y347980D03*
X688730Y347980D03*
D18*
X525780Y505460D03*
X764540Y266700D03*
D10*
X921140Y436880D03*
X938140Y436880D03*
X887340Y436880D03*
X870340Y436880D03*
X864480Y347980D03*
X847480Y347980D03*
X816220Y436880D03*
X799220Y436880D03*
D11*
X911615Y371080D03*
X911615Y377080D03*
X911615Y383080D03*
X911615Y389080D03*
X911615Y395080D03*
X911615Y401080D03*
X896865Y401080D03*
X896865Y395080D03*
X896865Y389080D03*
X896865Y383080D03*
X896865Y377080D03*
X896865Y371080D03*
D12*
X1005840Y487680D03*
X802640Y487680D03*
X802640Y284480D03*
X1005840Y284480D03*
D13*
X846020Y433390D02*
X846020Y440370D01*
X853000Y440370D01*
X853000Y433390D01*
X846020Y433390D01*
X846020Y438190D02*
X853000Y438190D01*
X828480Y440370D02*
X828480Y433390D01*
X828480Y440370D02*
X835460Y440370D01*
X835460Y433390D01*
X828480Y433390D01*
X828480Y438190D02*
X835460Y438190D01*
D14*
X866140Y500380D03*
X891540Y500380D03*
X916940Y500380D03*
X942340Y500380D03*
X866140Y271780D03*
X891540Y271780D03*
X916940Y271780D03*
X942340Y271780D03*
D15*
X791290Y414080D03*
X791290Y358080D03*
D16*
X828040Y401080D03*
X828040Y391080D03*
X828040Y381080D03*
X828040Y371080D03*
D15*
X1017190Y358080D03*
X1017190Y414080D03*
D16*
X980440Y371080D03*
X980440Y381080D03*
X980440Y391080D03*
X980440Y401080D03*
D17*
X942340Y377580D03*
X942340Y394580D03*
X866140Y394580D03*
X866140Y377580D03*
D10*
X895740Y347980D03*
X912740Y347980D03*
X964810Y347980D03*
X947810Y347980D03*
D18*
X784860Y505460D03*
X1023620Y266700D03*
D10*
X143900Y695960D03*
X160900Y695960D03*
X110100Y695960D03*
X93100Y695960D03*
X87240Y607060D03*
X70240Y607060D03*
X38980Y695960D03*
X21980Y695960D03*
D11*
X134375Y630160D03*
X134375Y636160D03*
X134375Y642160D03*
X134375Y648160D03*
X134375Y654160D03*
X134375Y660160D03*
X119625Y660160D03*
X119625Y654160D03*
X119625Y648160D03*
X119625Y642160D03*
X119625Y636160D03*
X119625Y630160D03*
D12*
X228600Y746760D03*
X25400Y746760D03*
X25400Y543560D03*
X228600Y543560D03*
D13*
X68780Y692470D02*
X68780Y699450D01*
X75760Y699450D01*
X75760Y692470D01*
X68780Y692470D01*
X68780Y697270D02*
X75760Y697270D01*
X51240Y699450D02*
X51240Y692470D01*
X51240Y699450D02*
X58220Y699450D01*
X58220Y692470D01*
X51240Y692470D01*
X51240Y697270D02*
X58220Y697270D01*
D14*
X88900Y759460D03*
X114300Y759460D03*
X139700Y759460D03*
X165100Y759460D03*
X88900Y530860D03*
X114300Y530860D03*
X139700Y530860D03*
X165100Y530860D03*
D15*
X14050Y673160D03*
X14050Y617160D03*
D16*
X50800Y660160D03*
X50800Y650160D03*
X50800Y640160D03*
X50800Y630160D03*
D15*
X239950Y617160D03*
X239950Y673160D03*
D16*
X203200Y630160D03*
X203200Y640160D03*
X203200Y650160D03*
X203200Y660160D03*
D17*
X165100Y636660D03*
X165100Y653660D03*
X88900Y653660D03*
X88900Y636660D03*
D10*
X118500Y607060D03*
X135500Y607060D03*
X187570Y607060D03*
X170570Y607060D03*
D18*
X7620Y764540D03*
X246380Y525780D03*
D10*
X402980Y695960D03*
X419980Y695960D03*
X369180Y695960D03*
X352180Y695960D03*
X346320Y607060D03*
X329320Y607060D03*
X298060Y695960D03*
X281060Y695960D03*
D11*
X393455Y630160D03*
X393455Y636160D03*
X393455Y642160D03*
X393455Y648160D03*
X393455Y654160D03*
X393455Y660160D03*
X378705Y660160D03*
X378705Y654160D03*
X378705Y648160D03*
X378705Y642160D03*
X378705Y636160D03*
X378705Y630160D03*
D12*
X487680Y746760D03*
X284480Y746760D03*
X284480Y543560D03*
X487680Y543560D03*
D13*
X327860Y692470D02*
X327860Y699450D01*
X334840Y699450D01*
X334840Y692470D01*
X327860Y692470D01*
X327860Y697270D02*
X334840Y697270D01*
X310320Y699450D02*
X310320Y692470D01*
X310320Y699450D02*
X317300Y699450D01*
X317300Y692470D01*
X310320Y692470D01*
X310320Y697270D02*
X317300Y697270D01*
D14*
X347980Y759460D03*
X373380Y759460D03*
X398780Y759460D03*
X424180Y759460D03*
X347980Y530860D03*
X373380Y530860D03*
X398780Y530860D03*
X424180Y530860D03*
D15*
X273130Y673160D03*
X273130Y617160D03*
D16*
X309880Y660160D03*
X309880Y650160D03*
X309880Y640160D03*
X309880Y630160D03*
D15*
X499030Y617160D03*
X499030Y673160D03*
D16*
X462280Y630160D03*
X462280Y640160D03*
X462280Y650160D03*
X462280Y660160D03*
D17*
X424180Y636660D03*
X424180Y653660D03*
X347980Y653660D03*
X347980Y636660D03*
D10*
X377580Y607060D03*
X394580Y607060D03*
X446650Y607060D03*
X429650Y607060D03*
D18*
X266700Y764540D03*
X505460Y525780D03*
D10*
X662060Y695960D03*
X679060Y695960D03*
X628260Y695960D03*
X611260Y695960D03*
X605400Y607060D03*
X588400Y607060D03*
X557140Y695960D03*
X540140Y695960D03*
D11*
X652535Y630160D03*
X652535Y636160D03*
X652535Y642160D03*
X652535Y648160D03*
X652535Y654160D03*
X652535Y660160D03*
X637785Y660160D03*
X637785Y654160D03*
X637785Y648160D03*
X637785Y642160D03*
X637785Y636160D03*
X637785Y630160D03*
D12*
X746760Y746760D03*
X543560Y746760D03*
X543560Y543560D03*
X746760Y543560D03*
D13*
X586940Y692470D02*
X586940Y699450D01*
X593920Y699450D01*
X593920Y692470D01*
X586940Y692470D01*
X586940Y697270D02*
X593920Y697270D01*
X569400Y699450D02*
X569400Y692470D01*
X569400Y699450D02*
X576380Y699450D01*
X576380Y692470D01*
X569400Y692470D01*
X569400Y697270D02*
X576380Y697270D01*
D14*
X607060Y759460D03*
X632460Y759460D03*
X657860Y759460D03*
X683260Y759460D03*
X607060Y530860D03*
X632460Y530860D03*
X657860Y530860D03*
X683260Y530860D03*
D15*
X532210Y673160D03*
X532210Y617160D03*
D16*
X568960Y660160D03*
X568960Y650160D03*
X568960Y640160D03*
X568960Y630160D03*
D15*
X758110Y617160D03*
X758110Y673160D03*
D16*
X721360Y630160D03*
X721360Y640160D03*
X721360Y650160D03*
X721360Y660160D03*
D17*
X683260Y636660D03*
X683260Y653660D03*
X607060Y653660D03*
X607060Y636660D03*
D10*
X636660Y607060D03*
X653660Y607060D03*
X705730Y607060D03*
X688730Y607060D03*
D18*
X525780Y764540D03*
X764540Y525780D03*
D10*
X921140Y695960D03*
X938140Y695960D03*
X887340Y695960D03*
X870340Y695960D03*
X864480Y607060D03*
X847480Y607060D03*
X816220Y695960D03*
X799220Y695960D03*
D11*
X911615Y630160D03*
X911615Y636160D03*
X911615Y642160D03*
X911615Y648160D03*
X911615Y654160D03*
X911615Y660160D03*
X896865Y660160D03*
X896865Y654160D03*
X896865Y648160D03*
X896865Y642160D03*
X896865Y636160D03*
X896865Y630160D03*
D12*
X1005840Y746760D03*
X802640Y746760D03*
X802640Y543560D03*
X1005840Y543560D03*
D13*
X846020Y692470D02*
X846020Y699450D01*
X853000Y699450D01*
X853000Y692470D01*
X846020Y692470D01*
X846020Y697270D02*
X853000Y697270D01*
X828480Y699450D02*
X828480Y692470D01*
X828480Y699450D02*
X835460Y699450D01*
X835460Y692470D01*
X828480Y692470D01*
X828480Y697270D02*
X835460Y697270D01*
D14*
X866140Y759460D03*
X891540Y759460D03*
X916940Y759460D03*
X942340Y759460D03*
X866140Y530860D03*
X891540Y530860D03*
X916940Y530860D03*
X942340Y530860D03*
D15*
X791290Y673160D03*
X791290Y617160D03*
D16*
X828040Y660160D03*
X828040Y650160D03*
X828040Y640160D03*
X828040Y630160D03*
D15*
X1017190Y617160D03*
X1017190Y673160D03*
D16*
X980440Y630160D03*
X980440Y640160D03*
X980440Y650160D03*
X980440Y660160D03*
D17*
X942340Y636660D03*
X942340Y653660D03*
X866140Y653660D03*
X866140Y636660D03*
D10*
X895740Y607060D03*
X912740Y607060D03*
X964810Y607060D03*
X947810Y607060D03*
D18*
X784860Y764540D03*
X1023620Y525780D03*
D10*
X143900Y955040D03*
X160900Y955040D03*
X110100Y955040D03*
X93100Y955040D03*
X87240Y866140D03*
X70240Y866140D03*
X38980Y955040D03*
X21980Y955040D03*
D11*
X134375Y889240D03*
X134375Y895240D03*
X134375Y901240D03*
X134375Y907240D03*
X134375Y913240D03*
X134375Y919240D03*
X119625Y919240D03*
X119625Y913240D03*
X119625Y907240D03*
X119625Y901240D03*
X119625Y895240D03*
X119625Y889240D03*
D12*
X228600Y1005840D03*
X25400Y1005840D03*
X25400Y802640D03*
X228600Y802640D03*
D13*
X68780Y951550D02*
X68780Y958530D01*
X75760Y958530D01*
X75760Y951550D01*
X68780Y951550D01*
X68780Y956350D02*
X75760Y956350D01*
X51240Y958530D02*
X51240Y951550D01*
X51240Y958530D02*
X58220Y958530D01*
X58220Y951550D01*
X51240Y951550D01*
X51240Y956350D02*
X58220Y956350D01*
D14*
X88900Y1018540D03*
X114300Y1018540D03*
X139700Y1018540D03*
X165100Y1018540D03*
X88900Y789940D03*
X114300Y789940D03*
X139700Y789940D03*
X165100Y789940D03*
D15*
X14050Y932240D03*
X14050Y876240D03*
D16*
X50800Y919240D03*
X50800Y909240D03*
X50800Y899240D03*
X50800Y889240D03*
D15*
X239950Y876240D03*
X239950Y932240D03*
D16*
X203200Y889240D03*
X203200Y899240D03*
X203200Y909240D03*
X203200Y919240D03*
D17*
X165100Y895740D03*
X165100Y912740D03*
X88900Y912740D03*
X88900Y895740D03*
D10*
X118500Y866140D03*
X135500Y866140D03*
X187570Y866140D03*
X170570Y866140D03*
D18*
X7620Y1023620D03*
X246380Y784860D03*
D10*
X402980Y955040D03*
X419980Y955040D03*
X369180Y955040D03*
X352180Y955040D03*
X346320Y866140D03*
X329320Y866140D03*
X298060Y955040D03*
X281060Y955040D03*
D11*
X393455Y889240D03*
X393455Y895240D03*
X393455Y901240D03*
X393455Y907240D03*
X393455Y913240D03*
X393455Y919240D03*
X378705Y919240D03*
X378705Y913240D03*
X378705Y907240D03*
X378705Y901240D03*
X378705Y895240D03*
X378705Y889240D03*
D12*
X487680Y1005840D03*
X284480Y1005840D03*
X284480Y802640D03*
X487680Y802640D03*
D13*
X327860Y951550D02*
X327860Y958530D01*
X334840Y958530D01*
X334840Y951550D01*
X327860Y951550D01*
X327860Y956350D02*
X334840Y956350D01*
X310320Y958530D02*
X310320Y951550D01*
X310320Y958530D02*
X317300Y958530D01*
X317300Y951550D01*
X310320Y951550D01*
X310320Y956350D02*
X317300Y956350D01*
D14*
X347980Y1018540D03*
X373380Y1018540D03*
X398780Y1018540D03*
X424180Y1018540D03*
X347980Y789940D03*
X373380Y789940D03*
X398780Y789940D03*
X424180Y789940D03*
D15*
X273130Y932240D03*
X273130Y876240D03*
D16*
X309880Y919240D03*
X309880Y909240D03*
X309880Y899240D03*
X309880Y889240D03*
D15*
X499030Y876240D03*
X499030Y932240D03*
D16*
X462280Y889240D03*
X462280Y899240D03*
X462280Y909240D03*
X462280Y919240D03*
D17*
X424180Y895740D03*
X424180Y912740D03*
X347980Y912740D03*
X347980Y895740D03*
D10*
X377580Y866140D03*
X394580Y866140D03*
X446650Y866140D03*
X429650Y866140D03*
D18*
X266700Y1023620D03*
X505460Y784860D03*
D10*
X662060Y955040D03*
X679060Y955040D03*
X628260Y955040D03*
X611260Y955040D03*
X605400Y866140D03*
X588400Y866140D03*
X557140Y955040D03*
X540140Y955040D03*
D11*
X652535Y889240D03*
X652535Y895240D03*
X652535Y901240D03*
X652535Y907240D03*
X652535Y913240D03*
X652535Y919240D03*
X637785Y919240D03*
X637785Y913240D03*
X637785Y907240D03*
X637785Y901240D03*
X637785Y895240D03*
X637785Y889240D03*
D12*
X746760Y1005840D03*
X543560Y1005840D03*
X543560Y802640D03*
X746760Y802640D03*
D13*
X586940Y951550D02*
X586940Y958530D01*
X593920Y958530D01*
X593920Y951550D01*
X586940Y951550D01*
X586940Y956350D02*
X593920Y956350D01*
X569400Y958530D02*
X569400Y951550D01*
X569400Y958530D02*
X576380Y958530D01*
X576380Y951550D01*
X569400Y951550D01*
X569400Y956350D02*
X576380Y956350D01*
D14*
X607060Y1018540D03*
X632460Y1018540D03*
X657860Y1018540D03*
X683260Y1018540D03*
X607060Y789940D03*
X632460Y789940D03*
X657860Y789940D03*
X683260Y789940D03*
D15*
X532210Y932240D03*
X532210Y876240D03*
D16*
X568960Y919240D03*
X568960Y909240D03*
X568960Y899240D03*
X568960Y889240D03*
D15*
X758110Y876240D03*
X758110Y932240D03*
D16*
X721360Y889240D03*
X721360Y899240D03*
X721360Y909240D03*
X721360Y919240D03*
D17*
X683260Y895740D03*
X683260Y912740D03*
X607060Y912740D03*
X607060Y895740D03*
D10*
X636660Y866140D03*
X653660Y866140D03*
X705730Y866140D03*
X688730Y866140D03*
D18*
X525780Y1023620D03*
X764540Y784860D03*
D10*
X921140Y955040D03*
X938140Y955040D03*
X887340Y955040D03*
X870340Y955040D03*
X864480Y866140D03*
X847480Y866140D03*
X816220Y955040D03*
X799220Y955040D03*
D11*
X911615Y889240D03*
X911615Y895240D03*
X911615Y901240D03*
X911615Y907240D03*
X911615Y913240D03*
X911615Y919240D03*
X896865Y919240D03*
X896865Y913240D03*
X896865Y907240D03*
X896865Y901240D03*
X896865Y895240D03*
X896865Y889240D03*
D12*
X1005840Y1005840D03*
X802640Y1005840D03*
X802640Y802640D03*
X1005840Y802640D03*
D13*
X846020Y951550D02*
X846020Y958530D01*
X853000Y958530D01*
X853000Y951550D01*
X846020Y951550D01*
X846020Y956350D02*
X853000Y956350D01*
X828480Y958530D02*
X828480Y951550D01*
X828480Y958530D02*
X835460Y958530D01*
X835460Y951550D01*
X828480Y951550D01*
X828480Y956350D02*
X835460Y956350D01*
D14*
X866140Y1018540D03*
X891540Y1018540D03*
X916940Y1018540D03*
X942340Y1018540D03*
X866140Y789940D03*
X891540Y789940D03*
X916940Y789940D03*
X942340Y789940D03*
D15*
X791290Y932240D03*
X791290Y876240D03*
D16*
X828040Y919240D03*
X828040Y909240D03*
X828040Y899240D03*
X828040Y889240D03*
D15*
X1017190Y876240D03*
X1017190Y932240D03*
D16*
X980440Y889240D03*
X980440Y899240D03*
X980440Y909240D03*
X980440Y919240D03*
D17*
X942340Y895740D03*
X942340Y912740D03*
X866140Y912740D03*
X866140Y895740D03*
D10*
X895740Y866140D03*
X912740Y866140D03*
X964810Y866140D03*
X947810Y866140D03*
D18*
X784860Y1023620D03*
X1023620Y784860D03*
X68580Y1052195D03*
X962025Y1052195D03*
D19*
X59525Y-20955D02*
X59528Y-20733D01*
X59536Y-20511D01*
X59550Y-20289D01*
X59569Y-20067D01*
X59593Y-19847D01*
X59623Y-19626D01*
X59658Y-19407D01*
X59699Y-19188D01*
X59745Y-18971D01*
X59796Y-18755D01*
X59853Y-18540D01*
X59915Y-18326D01*
X59982Y-18115D01*
X60054Y-17904D01*
X60132Y-17696D01*
X60214Y-17490D01*
X60302Y-17286D01*
X60394Y-17083D01*
X60492Y-16884D01*
X60594Y-16687D01*
X60701Y-16492D01*
X60813Y-16300D01*
X60930Y-16111D01*
X61051Y-15924D01*
X61177Y-15741D01*
X61307Y-15561D01*
X61442Y-15384D01*
X61580Y-15211D01*
X61723Y-15041D01*
X61871Y-14874D01*
X62022Y-14711D01*
X62177Y-14552D01*
X62336Y-14397D01*
X62499Y-14246D01*
X62666Y-14098D01*
X62836Y-13955D01*
X63009Y-13817D01*
X63186Y-13682D01*
X63366Y-13552D01*
X63549Y-13426D01*
X63736Y-13305D01*
X63925Y-13188D01*
X64117Y-13076D01*
X64312Y-12969D01*
X64509Y-12867D01*
X64708Y-12769D01*
X64911Y-12677D01*
X65115Y-12589D01*
X65321Y-12507D01*
X65529Y-12429D01*
X65740Y-12357D01*
X65951Y-12290D01*
X66165Y-12228D01*
X66380Y-12171D01*
X66596Y-12120D01*
X66813Y-12074D01*
X67032Y-12033D01*
X67251Y-11998D01*
X67472Y-11968D01*
X67692Y-11944D01*
X67914Y-11925D01*
X68136Y-11911D01*
X68358Y-11903D01*
X68580Y-11900D01*
X68802Y-11903D01*
X69024Y-11911D01*
X69246Y-11925D01*
X69468Y-11944D01*
X69688Y-11968D01*
X69909Y-11998D01*
X70128Y-12033D01*
X70347Y-12074D01*
X70564Y-12120D01*
X70780Y-12171D01*
X70995Y-12228D01*
X71209Y-12290D01*
X71420Y-12357D01*
X71631Y-12429D01*
X71839Y-12507D01*
X72045Y-12589D01*
X72249Y-12677D01*
X72452Y-12769D01*
X72651Y-12867D01*
X72848Y-12969D01*
X73043Y-13076D01*
X73235Y-13188D01*
X73424Y-13305D01*
X73611Y-13426D01*
X73794Y-13552D01*
X73974Y-13682D01*
X74151Y-13817D01*
X74324Y-13955D01*
X74494Y-14098D01*
X74661Y-14246D01*
X74824Y-14397D01*
X74983Y-14552D01*
X75138Y-14711D01*
X75289Y-14874D01*
X75437Y-15041D01*
X75580Y-15211D01*
X75718Y-15384D01*
X75853Y-15561D01*
X75983Y-15741D01*
X76109Y-15924D01*
X76230Y-16111D01*
X76347Y-16300D01*
X76459Y-16492D01*
X76566Y-16687D01*
X76668Y-16884D01*
X76766Y-17083D01*
X76858Y-17286D01*
X76946Y-17490D01*
X77028Y-17696D01*
X77106Y-17904D01*
X77178Y-18115D01*
X77245Y-18326D01*
X77307Y-18540D01*
X77364Y-18755D01*
X77415Y-18971D01*
X77461Y-19188D01*
X77502Y-19407D01*
X77537Y-19626D01*
X77567Y-19847D01*
X77591Y-20067D01*
X77610Y-20289D01*
X77624Y-20511D01*
X77632Y-20733D01*
X77635Y-20955D01*
X77632Y-21177D01*
X77624Y-21399D01*
X77610Y-21621D01*
X77591Y-21843D01*
X77567Y-22063D01*
X77537Y-22284D01*
X77502Y-22503D01*
X77461Y-22722D01*
X77415Y-22939D01*
X77364Y-23155D01*
X77307Y-23370D01*
X77245Y-23584D01*
X77178Y-23795D01*
X77106Y-24006D01*
X77028Y-24214D01*
X76946Y-24420D01*
X76858Y-24624D01*
X76766Y-24827D01*
X76668Y-25026D01*
X76566Y-25223D01*
X76459Y-25418D01*
X76347Y-25610D01*
X76230Y-25799D01*
X76109Y-25986D01*
X75983Y-26169D01*
X75853Y-26349D01*
X75718Y-26526D01*
X75580Y-26699D01*
X75437Y-26869D01*
X75289Y-27036D01*
X75138Y-27199D01*
X74983Y-27358D01*
X74824Y-27513D01*
X74661Y-27664D01*
X74494Y-27812D01*
X74324Y-27955D01*
X74151Y-28093D01*
X73974Y-28228D01*
X73794Y-28358D01*
X73611Y-28484D01*
X73424Y-28605D01*
X73235Y-28722D01*
X73043Y-28834D01*
X72848Y-28941D01*
X72651Y-29043D01*
X72452Y-29141D01*
X72249Y-29233D01*
X72045Y-29321D01*
X71839Y-29403D01*
X71631Y-29481D01*
X71420Y-29553D01*
X71209Y-29620D01*
X70995Y-29682D01*
X70780Y-29739D01*
X70564Y-29790D01*
X70347Y-29836D01*
X70128Y-29877D01*
X69909Y-29912D01*
X69688Y-29942D01*
X69468Y-29966D01*
X69246Y-29985D01*
X69024Y-29999D01*
X68802Y-30007D01*
X68580Y-30010D01*
X68358Y-30007D01*
X68136Y-29999D01*
X67914Y-29985D01*
X67692Y-29966D01*
X67472Y-29942D01*
X67251Y-29912D01*
X67032Y-29877D01*
X66813Y-29836D01*
X66596Y-29790D01*
X66380Y-29739D01*
X66165Y-29682D01*
X65951Y-29620D01*
X65740Y-29553D01*
X65529Y-29481D01*
X65321Y-29403D01*
X65115Y-29321D01*
X64911Y-29233D01*
X64708Y-29141D01*
X64509Y-29043D01*
X64312Y-28941D01*
X64117Y-28834D01*
X63925Y-28722D01*
X63736Y-28605D01*
X63549Y-28484D01*
X63366Y-28358D01*
X63186Y-28228D01*
X63009Y-28093D01*
X62836Y-27955D01*
X62666Y-27812D01*
X62499Y-27664D01*
X62336Y-27513D01*
X62177Y-27358D01*
X62022Y-27199D01*
X61871Y-27036D01*
X61723Y-26869D01*
X61580Y-26699D01*
X61442Y-26526D01*
X61307Y-26349D01*
X61177Y-26169D01*
X61051Y-25986D01*
X60930Y-25799D01*
X60813Y-25610D01*
X60701Y-25418D01*
X60594Y-25223D01*
X60492Y-25026D01*
X60394Y-24827D01*
X60302Y-24624D01*
X60214Y-24420D01*
X60132Y-24214D01*
X60054Y-24006D01*
X59982Y-23795D01*
X59915Y-23584D01*
X59853Y-23370D01*
X59796Y-23155D01*
X59745Y-22939D01*
X59699Y-22722D01*
X59658Y-22503D01*
X59623Y-22284D01*
X59593Y-22063D01*
X59569Y-21843D01*
X59550Y-21621D01*
X59536Y-21399D01*
X59528Y-21177D01*
X59525Y-20955D01*
D20*
X68580Y-20955D03*
M02*
