G04 EAGLE Gerber RS-274X export*
G75*
%MOMM*%
%FSLAX34Y34*%
%LPD*%
%INSolderpaste Top*%
%IPPOS*%
%AMOC8*
5,1,8,0,0,1.08239X$1,22.5*%
G01*
%ADD10R,1.100000X1.000000*%
%ADD11R,0.575000X0.350000*%
%ADD12C,0.300000*%
%ADD13R,2.000000X1.200000*%
%ADD14R,1.350000X0.600000*%
%ADD15R,1.000000X1.100000*%


D10*
X143900Y177800D03*
X160900Y177800D03*
X110100Y177800D03*
X93100Y177800D03*
X87240Y88900D03*
X70240Y88900D03*
X38980Y177800D03*
X21980Y177800D03*
D11*
X134375Y112000D03*
X134375Y118000D03*
X134375Y124000D03*
X134375Y130000D03*
X134375Y136000D03*
X134375Y142000D03*
X119625Y142000D03*
X119625Y136000D03*
X119625Y130000D03*
X119625Y124000D03*
X119625Y118000D03*
X119625Y112000D03*
D12*
X68770Y174300D02*
X68770Y181300D01*
X75770Y181300D01*
X75770Y174300D01*
X68770Y174300D01*
X68770Y177150D02*
X75770Y177150D01*
X75770Y180000D02*
X68770Y180000D01*
X51230Y181300D02*
X51230Y174300D01*
X51230Y181300D02*
X58230Y181300D01*
X58230Y174300D01*
X51230Y174300D01*
X51230Y177150D02*
X58230Y177150D01*
X58230Y180000D02*
X51230Y180000D01*
D13*
X14050Y155000D03*
X14050Y99000D03*
D14*
X50800Y142000D03*
X50800Y132000D03*
X50800Y122000D03*
X50800Y112000D03*
D13*
X239950Y99000D03*
X239950Y155000D03*
D14*
X203200Y112000D03*
X203200Y122000D03*
X203200Y132000D03*
X203200Y142000D03*
D15*
X165100Y118500D03*
X165100Y135500D03*
X88900Y135500D03*
X88900Y118500D03*
D10*
X118500Y88900D03*
X135500Y88900D03*
X187570Y88900D03*
X170570Y88900D03*
X402980Y177800D03*
X419980Y177800D03*
X369180Y177800D03*
X352180Y177800D03*
X346320Y88900D03*
X329320Y88900D03*
X298060Y177800D03*
X281060Y177800D03*
D11*
X393455Y112000D03*
X393455Y118000D03*
X393455Y124000D03*
X393455Y130000D03*
X393455Y136000D03*
X393455Y142000D03*
X378705Y142000D03*
X378705Y136000D03*
X378705Y130000D03*
X378705Y124000D03*
X378705Y118000D03*
X378705Y112000D03*
D12*
X327850Y174300D02*
X327850Y181300D01*
X334850Y181300D01*
X334850Y174300D01*
X327850Y174300D01*
X327850Y177150D02*
X334850Y177150D01*
X334850Y180000D02*
X327850Y180000D01*
X310310Y181300D02*
X310310Y174300D01*
X310310Y181300D02*
X317310Y181300D01*
X317310Y174300D01*
X310310Y174300D01*
X310310Y177150D02*
X317310Y177150D01*
X317310Y180000D02*
X310310Y180000D01*
D13*
X273130Y155000D03*
X273130Y99000D03*
D14*
X309880Y142000D03*
X309880Y132000D03*
X309880Y122000D03*
X309880Y112000D03*
D13*
X499030Y99000D03*
X499030Y155000D03*
D14*
X462280Y112000D03*
X462280Y122000D03*
X462280Y132000D03*
X462280Y142000D03*
D15*
X424180Y118500D03*
X424180Y135500D03*
X347980Y135500D03*
X347980Y118500D03*
D10*
X377580Y88900D03*
X394580Y88900D03*
X446650Y88900D03*
X429650Y88900D03*
X662060Y177800D03*
X679060Y177800D03*
X628260Y177800D03*
X611260Y177800D03*
X605400Y88900D03*
X588400Y88900D03*
X557140Y177800D03*
X540140Y177800D03*
D11*
X652535Y112000D03*
X652535Y118000D03*
X652535Y124000D03*
X652535Y130000D03*
X652535Y136000D03*
X652535Y142000D03*
X637785Y142000D03*
X637785Y136000D03*
X637785Y130000D03*
X637785Y124000D03*
X637785Y118000D03*
X637785Y112000D03*
D12*
X586930Y174300D02*
X586930Y181300D01*
X593930Y181300D01*
X593930Y174300D01*
X586930Y174300D01*
X586930Y177150D02*
X593930Y177150D01*
X593930Y180000D02*
X586930Y180000D01*
X569390Y181300D02*
X569390Y174300D01*
X569390Y181300D02*
X576390Y181300D01*
X576390Y174300D01*
X569390Y174300D01*
X569390Y177150D02*
X576390Y177150D01*
X576390Y180000D02*
X569390Y180000D01*
D13*
X532210Y155000D03*
X532210Y99000D03*
D14*
X568960Y142000D03*
X568960Y132000D03*
X568960Y122000D03*
X568960Y112000D03*
D13*
X758110Y99000D03*
X758110Y155000D03*
D14*
X721360Y112000D03*
X721360Y122000D03*
X721360Y132000D03*
X721360Y142000D03*
D15*
X683260Y118500D03*
X683260Y135500D03*
X607060Y135500D03*
X607060Y118500D03*
D10*
X636660Y88900D03*
X653660Y88900D03*
X705730Y88900D03*
X688730Y88900D03*
X921140Y177800D03*
X938140Y177800D03*
X887340Y177800D03*
X870340Y177800D03*
X864480Y88900D03*
X847480Y88900D03*
X816220Y177800D03*
X799220Y177800D03*
D11*
X911615Y112000D03*
X911615Y118000D03*
X911615Y124000D03*
X911615Y130000D03*
X911615Y136000D03*
X911615Y142000D03*
X896865Y142000D03*
X896865Y136000D03*
X896865Y130000D03*
X896865Y124000D03*
X896865Y118000D03*
X896865Y112000D03*
D12*
X846010Y174300D02*
X846010Y181300D01*
X853010Y181300D01*
X853010Y174300D01*
X846010Y174300D01*
X846010Y177150D02*
X853010Y177150D01*
X853010Y180000D02*
X846010Y180000D01*
X828470Y181300D02*
X828470Y174300D01*
X828470Y181300D02*
X835470Y181300D01*
X835470Y174300D01*
X828470Y174300D01*
X828470Y177150D02*
X835470Y177150D01*
X835470Y180000D02*
X828470Y180000D01*
D13*
X791290Y155000D03*
X791290Y99000D03*
D14*
X828040Y142000D03*
X828040Y132000D03*
X828040Y122000D03*
X828040Y112000D03*
D13*
X1017190Y99000D03*
X1017190Y155000D03*
D14*
X980440Y112000D03*
X980440Y122000D03*
X980440Y132000D03*
X980440Y142000D03*
D15*
X942340Y118500D03*
X942340Y135500D03*
X866140Y135500D03*
X866140Y118500D03*
D10*
X895740Y88900D03*
X912740Y88900D03*
X964810Y88900D03*
X947810Y88900D03*
X143900Y436880D03*
X160900Y436880D03*
X110100Y436880D03*
X93100Y436880D03*
X87240Y347980D03*
X70240Y347980D03*
X38980Y436880D03*
X21980Y436880D03*
D11*
X134375Y371080D03*
X134375Y377080D03*
X134375Y383080D03*
X134375Y389080D03*
X134375Y395080D03*
X134375Y401080D03*
X119625Y401080D03*
X119625Y395080D03*
X119625Y389080D03*
X119625Y383080D03*
X119625Y377080D03*
X119625Y371080D03*
D12*
X68770Y433380D02*
X68770Y440380D01*
X75770Y440380D01*
X75770Y433380D01*
X68770Y433380D01*
X68770Y436230D02*
X75770Y436230D01*
X75770Y439080D02*
X68770Y439080D01*
X51230Y440380D02*
X51230Y433380D01*
X51230Y440380D02*
X58230Y440380D01*
X58230Y433380D01*
X51230Y433380D01*
X51230Y436230D02*
X58230Y436230D01*
X58230Y439080D02*
X51230Y439080D01*
D13*
X14050Y414080D03*
X14050Y358080D03*
D14*
X50800Y401080D03*
X50800Y391080D03*
X50800Y381080D03*
X50800Y371080D03*
D13*
X239950Y358080D03*
X239950Y414080D03*
D14*
X203200Y371080D03*
X203200Y381080D03*
X203200Y391080D03*
X203200Y401080D03*
D15*
X165100Y377580D03*
X165100Y394580D03*
X88900Y394580D03*
X88900Y377580D03*
D10*
X118500Y347980D03*
X135500Y347980D03*
X187570Y347980D03*
X170570Y347980D03*
X402980Y436880D03*
X419980Y436880D03*
X369180Y436880D03*
X352180Y436880D03*
X346320Y347980D03*
X329320Y347980D03*
X298060Y436880D03*
X281060Y436880D03*
D11*
X393455Y371080D03*
X393455Y377080D03*
X393455Y383080D03*
X393455Y389080D03*
X393455Y395080D03*
X393455Y401080D03*
X378705Y401080D03*
X378705Y395080D03*
X378705Y389080D03*
X378705Y383080D03*
X378705Y377080D03*
X378705Y371080D03*
D12*
X327850Y433380D02*
X327850Y440380D01*
X334850Y440380D01*
X334850Y433380D01*
X327850Y433380D01*
X327850Y436230D02*
X334850Y436230D01*
X334850Y439080D02*
X327850Y439080D01*
X310310Y440380D02*
X310310Y433380D01*
X310310Y440380D02*
X317310Y440380D01*
X317310Y433380D01*
X310310Y433380D01*
X310310Y436230D02*
X317310Y436230D01*
X317310Y439080D02*
X310310Y439080D01*
D13*
X273130Y414080D03*
X273130Y358080D03*
D14*
X309880Y401080D03*
X309880Y391080D03*
X309880Y381080D03*
X309880Y371080D03*
D13*
X499030Y358080D03*
X499030Y414080D03*
D14*
X462280Y371080D03*
X462280Y381080D03*
X462280Y391080D03*
X462280Y401080D03*
D15*
X424180Y377580D03*
X424180Y394580D03*
X347980Y394580D03*
X347980Y377580D03*
D10*
X377580Y347980D03*
X394580Y347980D03*
X446650Y347980D03*
X429650Y347980D03*
X662060Y436880D03*
X679060Y436880D03*
X628260Y436880D03*
X611260Y436880D03*
X605400Y347980D03*
X588400Y347980D03*
X557140Y436880D03*
X540140Y436880D03*
D11*
X652535Y371080D03*
X652535Y377080D03*
X652535Y383080D03*
X652535Y389080D03*
X652535Y395080D03*
X652535Y401080D03*
X637785Y401080D03*
X637785Y395080D03*
X637785Y389080D03*
X637785Y383080D03*
X637785Y377080D03*
X637785Y371080D03*
D12*
X586930Y433380D02*
X586930Y440380D01*
X593930Y440380D01*
X593930Y433380D01*
X586930Y433380D01*
X586930Y436230D02*
X593930Y436230D01*
X593930Y439080D02*
X586930Y439080D01*
X569390Y440380D02*
X569390Y433380D01*
X569390Y440380D02*
X576390Y440380D01*
X576390Y433380D01*
X569390Y433380D01*
X569390Y436230D02*
X576390Y436230D01*
X576390Y439080D02*
X569390Y439080D01*
D13*
X532210Y414080D03*
X532210Y358080D03*
D14*
X568960Y401080D03*
X568960Y391080D03*
X568960Y381080D03*
X568960Y371080D03*
D13*
X758110Y358080D03*
X758110Y414080D03*
D14*
X721360Y371080D03*
X721360Y381080D03*
X721360Y391080D03*
X721360Y401080D03*
D15*
X683260Y377580D03*
X683260Y394580D03*
X607060Y394580D03*
X607060Y377580D03*
D10*
X636660Y347980D03*
X653660Y347980D03*
X705730Y347980D03*
X688730Y347980D03*
X921140Y436880D03*
X938140Y436880D03*
X887340Y436880D03*
X870340Y436880D03*
X864480Y347980D03*
X847480Y347980D03*
X816220Y436880D03*
X799220Y436880D03*
D11*
X911615Y371080D03*
X911615Y377080D03*
X911615Y383080D03*
X911615Y389080D03*
X911615Y395080D03*
X911615Y401080D03*
X896865Y401080D03*
X896865Y395080D03*
X896865Y389080D03*
X896865Y383080D03*
X896865Y377080D03*
X896865Y371080D03*
D12*
X846010Y433380D02*
X846010Y440380D01*
X853010Y440380D01*
X853010Y433380D01*
X846010Y433380D01*
X846010Y436230D02*
X853010Y436230D01*
X853010Y439080D02*
X846010Y439080D01*
X828470Y440380D02*
X828470Y433380D01*
X828470Y440380D02*
X835470Y440380D01*
X835470Y433380D01*
X828470Y433380D01*
X828470Y436230D02*
X835470Y436230D01*
X835470Y439080D02*
X828470Y439080D01*
D13*
X791290Y414080D03*
X791290Y358080D03*
D14*
X828040Y401080D03*
X828040Y391080D03*
X828040Y381080D03*
X828040Y371080D03*
D13*
X1017190Y358080D03*
X1017190Y414080D03*
D14*
X980440Y371080D03*
X980440Y381080D03*
X980440Y391080D03*
X980440Y401080D03*
D15*
X942340Y377580D03*
X942340Y394580D03*
X866140Y394580D03*
X866140Y377580D03*
D10*
X895740Y347980D03*
X912740Y347980D03*
X964810Y347980D03*
X947810Y347980D03*
X143900Y695960D03*
X160900Y695960D03*
X110100Y695960D03*
X93100Y695960D03*
X87240Y607060D03*
X70240Y607060D03*
X38980Y695960D03*
X21980Y695960D03*
D11*
X134375Y630160D03*
X134375Y636160D03*
X134375Y642160D03*
X134375Y648160D03*
X134375Y654160D03*
X134375Y660160D03*
X119625Y660160D03*
X119625Y654160D03*
X119625Y648160D03*
X119625Y642160D03*
X119625Y636160D03*
X119625Y630160D03*
D12*
X68770Y692460D02*
X68770Y699460D01*
X75770Y699460D01*
X75770Y692460D01*
X68770Y692460D01*
X68770Y695310D02*
X75770Y695310D01*
X75770Y698160D02*
X68770Y698160D01*
X51230Y699460D02*
X51230Y692460D01*
X51230Y699460D02*
X58230Y699460D01*
X58230Y692460D01*
X51230Y692460D01*
X51230Y695310D02*
X58230Y695310D01*
X58230Y698160D02*
X51230Y698160D01*
D13*
X14050Y673160D03*
X14050Y617160D03*
D14*
X50800Y660160D03*
X50800Y650160D03*
X50800Y640160D03*
X50800Y630160D03*
D13*
X239950Y617160D03*
X239950Y673160D03*
D14*
X203200Y630160D03*
X203200Y640160D03*
X203200Y650160D03*
X203200Y660160D03*
D15*
X165100Y636660D03*
X165100Y653660D03*
X88900Y653660D03*
X88900Y636660D03*
D10*
X118500Y607060D03*
X135500Y607060D03*
X187570Y607060D03*
X170570Y607060D03*
X402980Y695960D03*
X419980Y695960D03*
X369180Y695960D03*
X352180Y695960D03*
X346320Y607060D03*
X329320Y607060D03*
X298060Y695960D03*
X281060Y695960D03*
D11*
X393455Y630160D03*
X393455Y636160D03*
X393455Y642160D03*
X393455Y648160D03*
X393455Y654160D03*
X393455Y660160D03*
X378705Y660160D03*
X378705Y654160D03*
X378705Y648160D03*
X378705Y642160D03*
X378705Y636160D03*
X378705Y630160D03*
D12*
X327850Y692460D02*
X327850Y699460D01*
X334850Y699460D01*
X334850Y692460D01*
X327850Y692460D01*
X327850Y695310D02*
X334850Y695310D01*
X334850Y698160D02*
X327850Y698160D01*
X310310Y699460D02*
X310310Y692460D01*
X310310Y699460D02*
X317310Y699460D01*
X317310Y692460D01*
X310310Y692460D01*
X310310Y695310D02*
X317310Y695310D01*
X317310Y698160D02*
X310310Y698160D01*
D13*
X273130Y673160D03*
X273130Y617160D03*
D14*
X309880Y660160D03*
X309880Y650160D03*
X309880Y640160D03*
X309880Y630160D03*
D13*
X499030Y617160D03*
X499030Y673160D03*
D14*
X462280Y630160D03*
X462280Y640160D03*
X462280Y650160D03*
X462280Y660160D03*
D15*
X424180Y636660D03*
X424180Y653660D03*
X347980Y653660D03*
X347980Y636660D03*
D10*
X377580Y607060D03*
X394580Y607060D03*
X446650Y607060D03*
X429650Y607060D03*
X662060Y695960D03*
X679060Y695960D03*
X628260Y695960D03*
X611260Y695960D03*
X605400Y607060D03*
X588400Y607060D03*
X557140Y695960D03*
X540140Y695960D03*
D11*
X652535Y630160D03*
X652535Y636160D03*
X652535Y642160D03*
X652535Y648160D03*
X652535Y654160D03*
X652535Y660160D03*
X637785Y660160D03*
X637785Y654160D03*
X637785Y648160D03*
X637785Y642160D03*
X637785Y636160D03*
X637785Y630160D03*
D12*
X586930Y692460D02*
X586930Y699460D01*
X593930Y699460D01*
X593930Y692460D01*
X586930Y692460D01*
X586930Y695310D02*
X593930Y695310D01*
X593930Y698160D02*
X586930Y698160D01*
X569390Y699460D02*
X569390Y692460D01*
X569390Y699460D02*
X576390Y699460D01*
X576390Y692460D01*
X569390Y692460D01*
X569390Y695310D02*
X576390Y695310D01*
X576390Y698160D02*
X569390Y698160D01*
D13*
X532210Y673160D03*
X532210Y617160D03*
D14*
X568960Y660160D03*
X568960Y650160D03*
X568960Y640160D03*
X568960Y630160D03*
D13*
X758110Y617160D03*
X758110Y673160D03*
D14*
X721360Y630160D03*
X721360Y640160D03*
X721360Y650160D03*
X721360Y660160D03*
D15*
X683260Y636660D03*
X683260Y653660D03*
X607060Y653660D03*
X607060Y636660D03*
D10*
X636660Y607060D03*
X653660Y607060D03*
X705730Y607060D03*
X688730Y607060D03*
X921140Y695960D03*
X938140Y695960D03*
X887340Y695960D03*
X870340Y695960D03*
X864480Y607060D03*
X847480Y607060D03*
X816220Y695960D03*
X799220Y695960D03*
D11*
X911615Y630160D03*
X911615Y636160D03*
X911615Y642160D03*
X911615Y648160D03*
X911615Y654160D03*
X911615Y660160D03*
X896865Y660160D03*
X896865Y654160D03*
X896865Y648160D03*
X896865Y642160D03*
X896865Y636160D03*
X896865Y630160D03*
D12*
X846010Y692460D02*
X846010Y699460D01*
X853010Y699460D01*
X853010Y692460D01*
X846010Y692460D01*
X846010Y695310D02*
X853010Y695310D01*
X853010Y698160D02*
X846010Y698160D01*
X828470Y699460D02*
X828470Y692460D01*
X828470Y699460D02*
X835470Y699460D01*
X835470Y692460D01*
X828470Y692460D01*
X828470Y695310D02*
X835470Y695310D01*
X835470Y698160D02*
X828470Y698160D01*
D13*
X791290Y673160D03*
X791290Y617160D03*
D14*
X828040Y660160D03*
X828040Y650160D03*
X828040Y640160D03*
X828040Y630160D03*
D13*
X1017190Y617160D03*
X1017190Y673160D03*
D14*
X980440Y630160D03*
X980440Y640160D03*
X980440Y650160D03*
X980440Y660160D03*
D15*
X942340Y636660D03*
X942340Y653660D03*
X866140Y653660D03*
X866140Y636660D03*
D10*
X895740Y607060D03*
X912740Y607060D03*
X964810Y607060D03*
X947810Y607060D03*
X143900Y955040D03*
X160900Y955040D03*
X110100Y955040D03*
X93100Y955040D03*
X87240Y866140D03*
X70240Y866140D03*
X38980Y955040D03*
X21980Y955040D03*
D11*
X134375Y889240D03*
X134375Y895240D03*
X134375Y901240D03*
X134375Y907240D03*
X134375Y913240D03*
X134375Y919240D03*
X119625Y919240D03*
X119625Y913240D03*
X119625Y907240D03*
X119625Y901240D03*
X119625Y895240D03*
X119625Y889240D03*
D12*
X68770Y951540D02*
X68770Y958540D01*
X75770Y958540D01*
X75770Y951540D01*
X68770Y951540D01*
X68770Y954390D02*
X75770Y954390D01*
X75770Y957240D02*
X68770Y957240D01*
X51230Y958540D02*
X51230Y951540D01*
X51230Y958540D02*
X58230Y958540D01*
X58230Y951540D01*
X51230Y951540D01*
X51230Y954390D02*
X58230Y954390D01*
X58230Y957240D02*
X51230Y957240D01*
D13*
X14050Y932240D03*
X14050Y876240D03*
D14*
X50800Y919240D03*
X50800Y909240D03*
X50800Y899240D03*
X50800Y889240D03*
D13*
X239950Y876240D03*
X239950Y932240D03*
D14*
X203200Y889240D03*
X203200Y899240D03*
X203200Y909240D03*
X203200Y919240D03*
D15*
X165100Y895740D03*
X165100Y912740D03*
X88900Y912740D03*
X88900Y895740D03*
D10*
X118500Y866140D03*
X135500Y866140D03*
X187570Y866140D03*
X170570Y866140D03*
X402980Y955040D03*
X419980Y955040D03*
X369180Y955040D03*
X352180Y955040D03*
X346320Y866140D03*
X329320Y866140D03*
X298060Y955040D03*
X281060Y955040D03*
D11*
X393455Y889240D03*
X393455Y895240D03*
X393455Y901240D03*
X393455Y907240D03*
X393455Y913240D03*
X393455Y919240D03*
X378705Y919240D03*
X378705Y913240D03*
X378705Y907240D03*
X378705Y901240D03*
X378705Y895240D03*
X378705Y889240D03*
D12*
X327850Y951540D02*
X327850Y958540D01*
X334850Y958540D01*
X334850Y951540D01*
X327850Y951540D01*
X327850Y954390D02*
X334850Y954390D01*
X334850Y957240D02*
X327850Y957240D01*
X310310Y958540D02*
X310310Y951540D01*
X310310Y958540D02*
X317310Y958540D01*
X317310Y951540D01*
X310310Y951540D01*
X310310Y954390D02*
X317310Y954390D01*
X317310Y957240D02*
X310310Y957240D01*
D13*
X273130Y932240D03*
X273130Y876240D03*
D14*
X309880Y919240D03*
X309880Y909240D03*
X309880Y899240D03*
X309880Y889240D03*
D13*
X499030Y876240D03*
X499030Y932240D03*
D14*
X462280Y889240D03*
X462280Y899240D03*
X462280Y909240D03*
X462280Y919240D03*
D15*
X424180Y895740D03*
X424180Y912740D03*
X347980Y912740D03*
X347980Y895740D03*
D10*
X377580Y866140D03*
X394580Y866140D03*
X446650Y866140D03*
X429650Y866140D03*
X662060Y955040D03*
X679060Y955040D03*
X628260Y955040D03*
X611260Y955040D03*
X605400Y866140D03*
X588400Y866140D03*
X557140Y955040D03*
X540140Y955040D03*
D11*
X652535Y889240D03*
X652535Y895240D03*
X652535Y901240D03*
X652535Y907240D03*
X652535Y913240D03*
X652535Y919240D03*
X637785Y919240D03*
X637785Y913240D03*
X637785Y907240D03*
X637785Y901240D03*
X637785Y895240D03*
X637785Y889240D03*
D12*
X586930Y951540D02*
X586930Y958540D01*
X593930Y958540D01*
X593930Y951540D01*
X586930Y951540D01*
X586930Y954390D02*
X593930Y954390D01*
X593930Y957240D02*
X586930Y957240D01*
X569390Y958540D02*
X569390Y951540D01*
X569390Y958540D02*
X576390Y958540D01*
X576390Y951540D01*
X569390Y951540D01*
X569390Y954390D02*
X576390Y954390D01*
X576390Y957240D02*
X569390Y957240D01*
D13*
X532210Y932240D03*
X532210Y876240D03*
D14*
X568960Y919240D03*
X568960Y909240D03*
X568960Y899240D03*
X568960Y889240D03*
D13*
X758110Y876240D03*
X758110Y932240D03*
D14*
X721360Y889240D03*
X721360Y899240D03*
X721360Y909240D03*
X721360Y919240D03*
D15*
X683260Y895740D03*
X683260Y912740D03*
X607060Y912740D03*
X607060Y895740D03*
D10*
X636660Y866140D03*
X653660Y866140D03*
X705730Y866140D03*
X688730Y866140D03*
X921140Y955040D03*
X938140Y955040D03*
X887340Y955040D03*
X870340Y955040D03*
X864480Y866140D03*
X847480Y866140D03*
X816220Y955040D03*
X799220Y955040D03*
D11*
X911615Y889240D03*
X911615Y895240D03*
X911615Y901240D03*
X911615Y907240D03*
X911615Y913240D03*
X911615Y919240D03*
X896865Y919240D03*
X896865Y913240D03*
X896865Y907240D03*
X896865Y901240D03*
X896865Y895240D03*
X896865Y889240D03*
D12*
X846010Y951540D02*
X846010Y958540D01*
X853010Y958540D01*
X853010Y951540D01*
X846010Y951540D01*
X846010Y954390D02*
X853010Y954390D01*
X853010Y957240D02*
X846010Y957240D01*
X828470Y958540D02*
X828470Y951540D01*
X828470Y958540D02*
X835470Y958540D01*
X835470Y951540D01*
X828470Y951540D01*
X828470Y954390D02*
X835470Y954390D01*
X835470Y957240D02*
X828470Y957240D01*
D13*
X791290Y932240D03*
X791290Y876240D03*
D14*
X828040Y919240D03*
X828040Y909240D03*
X828040Y899240D03*
X828040Y889240D03*
D13*
X1017190Y876240D03*
X1017190Y932240D03*
D14*
X980440Y889240D03*
X980440Y899240D03*
X980440Y909240D03*
X980440Y919240D03*
D15*
X942340Y895740D03*
X942340Y912740D03*
X866140Y912740D03*
X866140Y895740D03*
D10*
X895740Y866140D03*
X912740Y866140D03*
X964810Y866140D03*
X947810Y866140D03*
M02*
