M48
;GenerationSoftware,Autodesk,EAGLE,9.6.2*%
;CreationDate,2020-12-02T18:32:45Z*%
FMAT,2
ICI,OFF
METRIC,TZ,000.000
T3C0.305
T2C1.016
T1C3.302
%
G90
M71
T1
X48768Y28448
X22860Y22860
X2540Y22860
X2540Y2540
X22860Y2540
X48768Y22860
X28448Y22860
X28448Y2540
X48768Y2540
X74676Y22860
X54356Y22860
X54356Y2540
X74676Y2540
X100584Y22860
X80264Y22860
X80264Y2540
X100584Y2540
X22860Y48768
X2540Y48768
X2540Y28448
X22860Y28448
X48768Y48768
X28448Y48768
X28448Y28448
X100584Y54356
X74676Y48768
X54356Y48768
X54356Y28448
X74676Y28448
X100584Y48768
X80264Y48768
X80264Y28448
X100584Y28448
X22860Y74676
X2540Y74676
X2540Y54356
X22860Y54356
X48768Y74676
X28448Y74676
X28448Y54356
X48768Y54356
X74676Y74676
X54356Y74676
X54356Y54356
X74676Y54356
X100584Y74676
X80264Y74676
X80264Y54356
X100584Y80264
X22860Y100584
X2540Y100584
X2540Y80264
X22860Y80264
X48768Y100584
X28448Y100584
X28448Y80264
X48768Y80264
X74676Y100584
X54356Y100584
X54356Y80264
X74676Y80264
X100584Y100584
X80264Y100584
X80264Y80264
T2
X16510Y50038
X8890Y24130
X11430Y24130
X13970Y24130
X16510Y24130
X8890Y1270
X11430Y1270
X13970Y1270
X16510Y1270
X34798Y24130
X37338Y24130
X39878Y24130
X42418Y24130
X34798Y1270
X37338Y1270
X39878Y1270
X42418Y1270
X60706Y24130
X63246Y24130
X65786Y24130
X68326Y24130
X60706Y1270
X63246Y1270
X65786Y1270
X68326Y1270
X86614Y24130
X89154Y24130
X91694Y24130
X94234Y24130
X86614Y1270
X89154Y1270
X91694Y1270
X94234Y1270
X8890Y50038
X11430Y50038
X13970Y50038
X8890Y27178
X11430Y27178
X13970Y27178
X16510Y27178
X34798Y50038
X37338Y50038
X39878Y50038
X42418Y50038
X34798Y27178
X37338Y27178
X39878Y27178
X42418Y27178
X60706Y50038
X63246Y50038
X65786Y50038
X68326Y50038
X60706Y27178
X63246Y27178
X65786Y27178
X68326Y27178
X86614Y50038
X89154Y50038
X91694Y50038
X94234Y50038
X86614Y27178
X89154Y27178
X91694Y27178
X94234Y27178
X8890Y75946
X11430Y75946
X13970Y75946
X16510Y75946
X8890Y53086
X11430Y53086
X13970Y53086
X16510Y53086
X34798Y75946
X37338Y75946
X39878Y75946
X42418Y75946
X34798Y53086
X37338Y53086
X39878Y53086
X42418Y53086
X60706Y75946
X63246Y75946
X65786Y75946
X68326Y75946
X60706Y53086
X63246Y53086
X65786Y53086
X68326Y53086
X86614Y75946
X89154Y75946
X91694Y75946
X94234Y75946
X86614Y53086
X89154Y53086
X91694Y53086
X94234Y53086
X8890Y101854
X11430Y101854
X13970Y101854
X16510Y101854
X8890Y78994
X11430Y78994
X13970Y78994
X16510Y78994
X34798Y101854
X37338Y101854
X39878Y101854
X42418Y101854
X34798Y78994
X37338Y78994
X39878Y78994
X42418Y78994
X60706Y101854
X63246Y101854
X65786Y101854
X68326Y101854
X60706Y78994
X63246Y78994
X65786Y78994
X68326Y78994
X86614Y101854
X89154Y101854
X91694Y101854
X94234Y101854
X86614Y78994
X89154Y78994
X91694Y78994
X94234Y78994
T3
X37973Y36068
X32893Y36043
X42939Y36081
X32766Y39116
X28194Y38100
X49530Y39116
X41148Y42164
X36068Y42164
X29464Y38100
X48006Y39116
X31750Y45212
X45593Y32258
X61214Y41148
X74676Y32258
X70866Y28448
X58166Y28448
X58166Y32258
X54356Y32258
X70866Y44958
X74676Y44958
X70612Y36576
X70866Y48768
X58166Y48768
X66802Y28448
X66802Y32258
X61976Y32258
X61976Y28448
X67056Y48768
X64516Y47498
X69596Y38862
X64897Y32893
X62865Y37211
X61849Y39243
X55118Y40132
X63881Y36068
X58801Y36043
X68847Y36081
X58674Y39116
X54102Y38100
X75438Y39116
X67056Y42164
X61976Y42164
X55372Y38100
X73914Y39116
X57658Y45212
X71501Y32258
X87122Y41148
X100584Y32258
X96774Y28448
X84074Y28448
X84074Y32258
X80264Y32258
X96774Y44958
X100584Y44958
X96520Y36576
X96774Y48768
X84074Y48768
X92710Y28448
X92710Y32258
X87884Y32258
X87884Y28448
X92964Y48768
X90424Y47498
X95504Y38862
X90805Y32893
X88773Y37211
X87757Y39243
X81026Y40132
X89789Y36068
X84709Y36043
X94755Y36081
X84582Y39116
X80010Y38100
X101346Y39116
X92964Y42164
X87884Y42164
X81280Y38100
X99822Y39116
X83566Y45212
X97409Y32258
X9398Y67056
X22860Y58166
X19050Y54356
X6350Y54356
X6350Y58166
X2540Y58166
X19050Y70866
X22860Y70866
X18796Y62484
X19050Y74676
X6350Y74676
X14986Y54356
X14986Y58166
X10160Y58166
X10160Y54356
X15240Y74676
X12700Y73406
X17780Y64770
X13081Y58801
X11049Y63119
X10033Y65151
X3302Y66040
X12065Y61976
X6985Y61951
X17031Y61989
X6858Y65024
X2286Y64008
X23622Y65024
X15240Y68072
X10160Y68072
X3556Y64008
X22098Y65024
X5842Y71120
X19685Y58166
X35306Y67056
X48768Y58166
X44958Y54356
X32258Y54356
X32258Y58166
X28448Y58166
X44958Y70866
X48768Y70866
X44704Y62484
X44958Y74676
X32258Y74676
X40894Y54356
X40894Y58166
X36068Y58166
X36068Y54356
X41148Y74676
X38608Y73406
X43688Y64770
X38989Y58801
X36957Y63119
X35941Y65151
X29210Y66040
X37973Y61976
X32893Y61951
X42939Y61989
X32766Y65024
X28194Y64008
X49530Y65024
X41148Y68072
X36068Y68072
X29464Y64008
X48006Y65024
X31750Y71120
X45593Y58166
X61214Y67056
X74676Y58166
X70866Y54356
X58166Y54356
X58166Y58166
X54356Y58166
X70866Y70866
X74676Y70866
X70612Y62484
X70866Y74676
X58166Y74676
X66802Y54356
X66802Y58166
X61976Y58166
X61976Y54356
X67056Y74676
X64516Y73406
X69596Y64770
X64897Y58801
X62865Y63119
X61849Y65151
X55118Y66040
X63881Y61976
X58801Y61951
X68847Y61989
X58674Y65024
X54102Y64008
X75438Y65024
X68847Y10173
X61976Y68072
X55372Y64008
X73914Y65024
X57658Y71120
X71501Y58166
X87122Y67056
X100584Y58166
X96774Y54356
X84074Y54356
X84074Y58166
X80264Y58166
X96774Y70866
X100584Y70866
X96520Y62484
X96774Y74676
X84074Y74676
X92710Y54356
X92710Y58166
X87884Y58166
X87884Y54356
X92964Y74676
X90424Y73406
X95504Y64770
X90805Y58801
X88773Y63119
X87757Y65151
X81026Y66040
X89789Y61976
X84709Y61951
X94755Y61989
X84582Y65024
X80010Y64008
X101346Y65024
X92964Y68072
X87884Y68072
X81280Y64008
X99822Y65024
X83566Y71120
X97409Y58166
X9398Y92964
X22860Y84074
X19050Y80264
X6350Y80264
X6350Y84074
X2540Y84074
X19050Y96774
X22860Y96774
X18796Y88392
X19050Y100584
X6350Y100584
X14986Y80264
X14986Y84074
X10160Y84074
X10160Y80264
X15240Y100584
X12700Y99314
X17780Y90678
X13081Y84709
X11049Y89027
X10033Y91059
X3302Y91948
X12065Y87884
X6985Y87859
X17031Y87897
X6858Y90932
X2286Y89916
X23622Y90932
X15240Y93980
X10160Y93980
X3556Y89916
X22098Y90932
X5842Y97028
X19685Y84074
X35306Y92964
X48768Y84074
X44958Y80264
X32258Y80264
X32258Y84074
X28448Y84074
X44958Y96774
X48768Y96774
X44704Y88392
X44958Y100584
X32258Y100584
X40894Y80264
X40894Y84074
X36068Y84074
X36068Y80264
X41148Y100584
X38608Y99314
X43688Y90678
X38989Y84709
X36957Y89027
X35941Y91059
X29210Y91948
X37973Y87884
X32893Y87859
X42939Y87897
X32766Y90932
X28194Y89916
X49530Y90932
X41148Y93980
X36068Y93980
X29464Y89916
X48006Y90932
X31750Y97028
X45593Y84074
X61214Y92964
X74676Y84074
X70866Y80264
X58166Y80264
X58166Y84074
X54356Y84074
X70866Y96774
X74676Y96774
X70612Y88392
X70866Y100584
X58166Y100584
X66802Y80264
X66802Y84074
X61976Y84074
X61976Y80264
X67056Y100584
X64516Y99314
X69596Y90678
X64897Y84709
X62865Y89027
X61849Y91059
X55118Y91948
X63881Y87884
X58801Y87859
X68847Y87897
X58674Y90932
X54102Y89916
X75438Y90932
X67056Y93980
X61976Y93980
X55372Y89916
X73914Y90932
X57658Y97028
X71501Y84074
X87122Y92964
X100584Y84074
X96774Y80264
X84074Y80264
X84074Y84074
X80264Y84074
X96774Y96774
X100584Y96774
X96520Y88392
X96774Y100584
X84074Y100584
X92710Y80264
X92710Y84074
X87884Y84074
X87884Y80264
X92964Y100584
X90424Y99314
X95504Y90678
X90805Y84709
X88773Y89027
X87757Y91059
X81026Y91948
X89789Y87884
X84709Y87859
X94755Y87897
X84582Y90932
X80010Y89916
X101346Y90932
X92964Y93980
X87884Y93980
X81280Y89916
X99822Y90932
X83566Y97028
X97409Y84074
X9398Y15240
X22860Y6350
X19050Y2540
X6350Y2540
X6350Y6350
X2540Y6350
X19050Y19050
X22860Y19050
X18796Y10668
X19050Y22860
X6350Y22860
X14986Y2540
X14986Y6350
X10160Y6350
X10160Y2540
X15240Y22860
X12700Y21590
X17780Y12954
X13081Y6985
X11049Y11303
X10033Y13335
X3302Y14224
X12065Y10160
X6985Y10135
X17031Y10173
X6858Y13208
X2286Y12192
X23622Y13208
X15240Y16256
X10160Y16256
X3556Y12192
X22098Y13208
X5842Y19304
X19685Y6350
X35306Y15240
X48768Y6350
X44958Y2540
X32258Y2540
X32258Y6350
X28448Y6350
X44958Y19050
X48768Y19050
X44704Y10668
X44958Y22860
X32258Y22860
X40894Y2540
X40894Y6350
X36068Y6350
X36068Y2540
X41148Y22860
X38608Y21590
X43688Y12954
X38989Y6985
X36957Y11303
X35941Y13335
X29210Y14224
X37973Y10160
X32893Y10135
X42939Y10173
X32766Y13208
X28194Y12192
X49530Y13208
X41148Y16256
X36068Y16256
X29464Y12192
X48006Y13208
X31750Y19304
X45593Y6350
X61214Y15240
X74676Y6350
X70866Y2540
X58166Y2540
X58166Y6350
X54356Y6350
X70866Y19050
X74676Y19050
X70612Y10668
X70866Y22860
X58166Y22860
X66802Y2540
X66802Y6350
X61976Y6350
X61976Y2540
X67056Y22860
X64516Y21590
X69596Y12954
X64897Y6985
X62865Y11303
X61849Y13335
X55118Y14224
X63881Y10160
X58801Y10135
X58674Y13208
X54102Y12192
X75438Y13208
X67056Y16256
X61976Y16256
X55372Y12192
X73914Y13208
X67056Y68072
X57658Y19304
X71501Y6350
X87122Y15240
X100584Y6350
X96774Y2540
X84074Y2540
X84074Y6350
X80264Y6350
X96774Y19050
X100584Y19050
X96520Y10668
X96774Y22860
X84074Y22860
X92710Y2540
X92710Y6350
X87884Y6350
X87884Y2540
X92964Y22860
X90424Y21590
X95504Y12954
X90805Y6985
X88773Y11303
X87757Y13335
X81026Y14224
X89789Y10160
X84709Y10135
X94755Y10173
X84582Y13208
X80010Y12192
X101346Y13208
X92964Y16256
X87884Y16256
X81280Y12192
X99822Y13208
X83566Y19304
X97409Y6350
X9398Y41148
X22860Y32258
X19050Y28448
X6350Y28448
X6350Y32258
X2540Y32258
X19050Y44958
X22860Y44958
X18796Y36576
X19050Y48768
X6350Y48768
X14986Y28448
X14986Y32258
X10160Y32258
X10160Y28448
X15240Y48768
X12700Y47498
X17780Y38862
X13081Y32893
X11049Y37211
X10033Y39243
X3302Y40132
X12065Y36068
X6985Y36043
X17031Y36081
X6858Y39116
X2286Y38100
X23622Y39116
X15240Y42164
X10160Y42164
X3556Y38100
X22098Y39116
X5842Y45212
X19685Y32258
X35306Y41148
X48768Y32258
X44958Y28448
X32258Y28448
X32258Y32258
X28448Y32258
X44958Y44958
X48768Y44958
X44704Y36576
X44958Y48768
X32258Y48768
X40894Y28448
X40894Y32258
X36068Y32258
X36068Y28448
X41148Y48768
X38608Y47498
X43688Y38862
X38989Y32893
X36957Y37211
X35941Y39243
X29210Y40132
M30